<svg xmlns="http://www.w3.org/2000/svg" width="1254" height="836" viewBox="0 0 1254 836">
<g>
<path d="M 306.10 647.52 C285.94,642.93 266.96,633.52 251.66,620.53 C241.42,611.84 232.42,600.72 227.53,590.73 L 223.25 581.97 L 222.12 586.43 C221.51,588.88 220.98,593.72 220.96,597.19 L 220.93 603.50 L 218.67 600.74 C211.40,591.86 203.17,573.82 199.23,558.11 C196.65,547.82 196.57,546.63 196.60,518.50 C196.62,498.82 197.16,484.36 198.29,473.50 C199.20,464.70 200.24,452.94 200.61,447.36 L 201.27 437.22 L 195.70 435.60 C189.10,433.68 185.08,429.44 181.87,421.00 C176.99,408.19 177.32,387.76 182.47,383.29 C186.37,379.90 191.21,379.40 196.19,381.86 C198.50,383.01 200.53,383.81 200.69,383.64 C201.11,383.22 197.11,370.41 190.62,351.42 C180.07,320.54 179.07,299.46 187.71,289.90 C190.94,286.33 191.12,285.79 190.10,282.87 C188.18,277.34 188.74,258.40 191.12,248.94 C194.29,236.29 200.96,223.37 208.53,215.19 C215.05,208.15 223.55,201.72 228.00,200.47 L 230.50 199.76 L 227.86 202.63 C223.19,207.70 218.10,216.65 215.61,224.17 C213.25,231.31 211.29,242.00 212.34,242.00 C212.62,242.00 213.60,239.41 214.52,236.25 C219.21,219.97 233.82,204.76 252.96,196.24 C268.94,189.12 286.59,186.44 312.00,187.28 C348.62,188.50 380.15,200.44 411.24,224.87 C417.01,229.40 428.76,236.75 435.00,239.72 C443.03,243.54 454.92,245.03 461.76,243.07 C464.88,242.17 465.00,242.25 465.00,245.02 C465.00,249.68 460.36,263.02 456.48,269.50 C452.25,276.58 445.38,283.20 438.71,286.62 L 433.93 289.07 L 437.00 291.65 C442.87,296.59 443.51,298.94 443.45,315.50 C443.40,331.17 443.10,332.84 435.96,357.00 C433.79,364.34 429.93,381.26 430.34,381.67 C430.48,381.82 432.21,381.44 434.19,380.83 C438.99,379.36 444.15,380.47 447.09,383.59 C451.89,388.70 450.58,410.92 444.70,424.10 C441.69,430.85 437.81,434.76 433.25,435.61 L 429.73 436.27 L 430.40 445.39 C430.77,450.40 431.72,460.35 432.53,467.50 C433.33,474.65 434.67,486.67 435.49,494.20 C439.36,529.43 435.85,562.45 425.82,584.93 C422.35,592.73 416.90,602.00 415.79,602.00 C415.35,602.00 415.00,600.22 415.00,598.05 C415.00,595.88 414.50,591.75 413.88,588.88 L 412.76 583.67 L 409.54 590.58 C395.21,621.38 356.88,646.91 322.57,648.51 C315.77,648.83 310.42,648.51 306.10,647.52 ZM 337.50 540.35 C342.77,539.35 349.04,537.10 355.88,533.77 C364.80,529.43 367.70,527.35 376.38,519.02 C382.19,513.45 387.96,508.82 389.93,508.15 C396.83,505.80 406.31,498.98 404.80,497.46 C404.51,497.17 403.25,496.74 402.00,496.50 C400.75,496.26 398.93,495.34 397.95,494.45 C396.25,492.92 396.36,492.50 400.03,485.67 C410.84,465.63 421.65,430.37 424.60,405.50 C427.18,383.82 424.92,368.66 415.43,344.00 C413.57,339.16 413.53,336.75 414.87,309.50 C415.31,300.70 415.58,293.37 415.47,293.22 C415.36,293.07 413.98,293.45 412.39,294.06 C406.42,296.38 382.87,300.12 365.50,301.52 C337.91,303.73 312.46,303.43 278.68,300.49 C267.86,299.55 245.55,295.85 236.05,293.42 C230.85,292.09 226.12,291.00 225.54,291.00 C224.84,291.00 224.60,298.21 224.82,313.25 L 225.15 335.50 L 221.00 346.50 C210.02,375.61 208.34,386.56 211.46,408.53 C215.07,433.87 229.13,473.65 240.19,489.76 C241.79,492.10 242.80,494.51 242.43,495.11 C242.06,495.71 240.19,496.86 238.27,497.66 C234.98,499.04 234.88,499.21 236.45,500.95 C238.52,503.23 249.22,509.00 251.38,509.00 C252.26,509.00 254.23,510.45 255.74,512.23 C264.11,522.02 278.76,532.86 289.00,536.82 C303.74,542.53 319.88,543.70 337.50,540.35 ZM 1072.61 524.48 C1067.89,522.85 1065.10,520.38 1063.36,516.28 C1060.36,509.18 1062.57,501.59 1069.06,496.79 C1072.61,494.16 1082.82,494.12 1087.27,496.72 C1091.31,499.08 1094.97,505.40 1094.97,510.00 C1094.97,514.53 1091.31,520.93 1087.50,523.08 C1083.35,525.42 1077.06,526.01 1072.61,524.48 ZM 507.00 464.07 L 507.00 404.00 L 531.75 404.02 C568.55,404.05 578.08,406.01 587.60,415.49 C599.68,427.53 600.23,445.87 588.84,457.26 C585.06,461.04 584.15,462.48 585.16,463.12 C585.90,463.59 586.99,463.98 587.59,463.98 C589.33,464.01 596.75,471.96 598.71,475.91 C600.09,478.68 600.50,481.91 600.49,490.00 C600.49,499.43 600.22,501.01 597.82,505.56 C594.50,511.88 588.43,517.44 581.12,520.86 L 575.50 523.50 L 541.25 523.82 L 507.00 524.14 L 507.00 464.07 ZM 560.60 496.89 C567.12,494.90 570.18,488.75 567.65,482.71 C565.44,477.41 561.85,476.00 550.55,476.00 L 541.00 476.00 L 541.00 487.57 L 541.00 499.14 L 549.25 498.49 C553.79,498.13 558.90,497.41 560.60,496.89 ZM 559.73 449.64 C563.10,447.90 564.00,446.26 564.00,441.85 C564.00,434.94 559.24,432.00 548.03,432.00 L 541.00 432.00 L 541.00 442.14 L 541.00 452.29 L 548.85 451.75 C553.16,451.45 558.06,450.50 559.73,449.64 ZM 606.60 521.75 C608.48,515.95 627.41,456.18 637.24,425.00 L 643.70 404.50 L 662.36 404.23 C680.95,403.96 681.03,403.96 681.93,406.23 C682.43,407.48 686.99,421.33 692.05,437.00 C697.11,452.67 705.21,477.65 710.05,492.50 C714.89,507.35 719.14,520.51 719.49,521.75 L 720.13 524.00 L 702.72 524.00 L 685.31 524.00 L 682.60 514.98 L 679.89 505.95 L 662.78 506.23 L 645.66 506.50 L 644.43 510.50 C643.76,512.70 642.65,516.64 641.97,519.25 L 640.74 524.00 L 623.30 524.00 L 605.87 524.00 L 606.60 521.75 ZM 672.72 479.18 C672.46,478.26 670.56,471.88 668.50,465.00 C666.43,458.12 664.19,450.48 663.51,448.00 L 662.27 443.50 L 661.53 446.50 C660.54,450.56 657.23,461.87 654.36,471.00 C650.84,482.20 650.32,481.55 662.60,481.18 C671.97,480.90 673.14,480.67 672.72,479.18 ZM 729.00 464.00 L 729.00 404.00 L 752.28 404.00 C788.04,404.00 798.32,405.91 809.31,414.60 C821.90,424.56 826.35,441.35 821.53,460.64 C819.78,467.66 814.90,474.38 808.46,478.66 L 803.07 482.24 L 805.86 486.37 C809.29,491.42 827.00,522.40 827.00,523.33 C827.00,523.70 818.90,524.00 809.00,524.00 L 790.99 524.00 L 781.76 505.50 L 772.53 487.00 L 767.26 487.00 L 762.00 487.00 L 762.00 505.50 L 762.00 524.00 L 745.50 524.00 L 729.00 524.00 L 729.00 464.00 ZM 781.19 458.97 C788.68,456.88 792.69,448.37 789.42,441.48 C786.58,435.48 783.10,434.01 771.75,434.00 L 762.00 434.00 L 762.00 447.00 L 762.00 460.00 L 769.75 459.99 C774.01,459.99 779.16,459.53 781.19,458.97 ZM 839.00 464.07 L 839.00 404.00 L 860.46 404.00 C887.83,404.00 900.48,405.31 908.64,409.00 C920.04,414.15 927.07,423.97 927.83,435.79 C928.43,445.06 926.60,450.24 920.32,457.02 L 914.97 462.80 L 917.83 463.79 C922.48,465.41 927.59,470.62 930.04,476.24 C933.47,484.11 933.37,495.53 929.79,503.22 C926.52,510.28 919.96,516.80 912.31,520.60 L 906.50 523.48 L 872.75 523.81 L 839.00 524.14 L 839.00 464.07 ZM 887.49 498.01 C890.79,497.47 894.62,496.19 895.99,495.17 C899.53,492.55 900.63,487.45 898.68,482.79 C896.51,477.59 892.22,476.00 880.38,476.00 L 871.00 476.00 L 871.00 487.50 L 871.00 499.00 L 876.25 498.99 C879.14,498.99 884.20,498.55 887.49,498.01 ZM 885.97 451.05 C891.69,449.95 895.01,446.31 894.97,441.19 C894.91,434.21 890.90,432.00 878.26,432.00 L 871.00 432.00 L 871.00 442.00 L 871.00 452.00 L 876.25 451.96 C879.14,451.93 883.51,451.52 885.97,451.05 ZM 939.40 522.40 C939.74,521.52 944.54,506.33 950.07,488.65 C972.99,415.37 976.02,405.77 976.56,404.91 C976.87,404.41 985.32,404.00 995.35,404.00 L 1013.58 404.00 L 1017.45 416.25 C1021.48,428.99 1025.19,440.44 1036.47,475.00 C1040.15,486.27 1043.32,496.17 1043.52,497.00 C1043.71,497.83 1045.69,503.90 1047.93,510.50 C1050.16,517.10 1051.99,522.84 1051.99,523.25 C1052.00,523.66 1044.18,524.00 1034.63,524.00 L 1017.26 524.00 L 1016.03 519.25 C1015.35,516.64 1014.24,512.70 1013.57,510.50 L 1012.34 506.50 L 995.32 506.23 L 978.30 505.95 L 976.74 512.23 C975.88,515.68 974.70,519.74 974.11,521.25 L 973.05 524.00 L 955.92 524.00 C940.62,524.00 938.85,523.83 939.40,522.40 ZM 1004.03 475.19 C1003.04,472.06 1000.98,465.23 999.46,460.00 C994.88,444.26 995.10,444.54 993.01,451.50 C989.94,461.69 985.00,479.64 985.00,480.59 C985.00,481.10 989.62,481.36 995.41,481.19 L 1005.83 480.87 L 1004.03 475.19 ZM 1065.64 481.75 C1065.32,479.41 1064.80,469.85 1064.48,460.50 C1064.16,451.15 1063.47,436.30 1062.95,427.50 C1062.43,418.70 1062.01,409.81 1062.00,407.75 L 1062.00 404.00 L 1078.11 404.00 L 1094.23 404.00 L 1093.63 408.25 C1093.31,410.59 1092.80,419.02 1092.51,427.00 C1092.22,434.98 1091.46,451.51 1090.83,463.75 L 1089.69 486.00 L 1077.96 486.00 L 1066.23 486.00 L 1065.64 481.75 ZM 507.00 317.48 L 507.00 254.95 L 523.70 255.23 L 540.41 255.50 L 548.45 267.72 C552.88,274.44 561.67,287.84 568.00,297.50 L 579.50 315.07 L 579.76 285.03 L 580.03 255.00 L 597.01 255.00 L 614.00 255.00 L 614.00 317.50 L 614.00 380.00 L 598.13 380.00 L 582.26 380.00 L 575.07 368.75 C557.62,341.45 544.10,320.70 543.09,319.69 C542.30,318.90 542.00,327.11 542.00,349.30 L 542.00 380.00 L 524.50 380.00 L 507.00 380.00 L 507.00 317.48 ZM 627.29 378.69 C627.89,377.13 639.87,339.72 646.56,318.50 C649.16,310.25 652.96,298.33 654.99,292.00 C657.02,285.67 660.41,274.76 662.52,267.75 L 666.37 255.00 L 685.05 255.00 L 703.73 255.00 L 717.92 298.25 C725.73,322.04 733.19,344.65 734.51,348.50 C737.44,357.10 744.00,378.39 744.00,379.32 C744.00,379.69 735.96,380.00 726.14,380.00 L 708.28 380.00 L 706.25 373.75 C705.14,370.31 703.91,366.04 703.53,364.25 L 702.84 361.00 L 685.58 361.00 L 668.32 361.00 L 667.23 364.75 C666.63,366.81 665.40,371.09 664.50,374.25 L 662.86 380.00 L 644.82 380.00 C630.34,380.00 626.89,379.74 627.29,378.69 ZM 695.52 331.75 C692.46,322.68 686.00,300.39 686.00,298.92 C686.00,297.86 685.55,297.00 685.00,297.00 C684.45,297.00 684.00,297.56 684.01,298.25 C684.02,299.88 679.46,316.52 676.48,325.75 L 674.14 333.00 L 685.04 333.00 C693.32,333.00 695.84,332.70 695.52,331.75 ZM 252.50 505.59 C249.75,504.91 245.50,503.32 243.05,502.05 L 238.60 499.75 L 244.55 497.00 C251.08,493.99 254.32,490.84 264.33,477.81 C274.11,465.09 281.95,459.25 293.08,456.40 C300.06,454.61 310.53,454.92 315.20,457.05 C317.33,458.01 319.54,457.91 326.60,456.51 C337.65,454.32 344.39,455.00 353.00,459.19 C359.76,462.47 368.08,470.17 382.45,486.43 C387.73,492.40 390.74,494.88 394.93,496.73 L 400.45 499.18 L 396.48 501.60 C390.04,505.52 385.28,506.51 373.50,506.37 C364.49,506.27 360.96,505.75 354.00,503.51 C344.61,500.49 326.75,492.38 321.91,488.93 L 318.80 486.72 L 315.15 488.89 C300.85,497.40 286.92,503.04 274.00,505.55 C265.12,507.27 259.31,507.28 252.50,505.59 Z" fill="rgba(239, 177, 0, 1.0)"/>
</g>
</svg>